<?xml version="1.0" encoding="UTF-8"?>
<svg width="50px" height="50px" viewBox="0 0 50 50" version="1.1" xmlns="http://www.w3.org/2000/svg" xmlns:xlink="http://www.w3.org/1999/xlink">
    <!-- Generator: Sketch 61.2 (89653) - https://sketch.com -->
    <title>Shape</title>
    <desc>Created with Sketch.</desc>
    <g id="Page-1" stroke="none" stroke-width="1" fill="none" fill-rule="evenodd">
        <g id="Artboard" fill="#343a40" fill-rule="nonzero">
            <path d="M48.8842928,43.5916154 L38.7070507,33.4131879 C45.0022235,24.3756139 43.35333,12.0267455 34.9074772,4.95747991 C26.4616245,-2.11178567 14.0153509,-1.56071693 6.227317,6.227317 C-1.56071693,14.0153509 -2.11178567,26.4616245 4.95747991,34.9074772 C12.0267455,43.35333 24.3756139,45.0022235 33.4131879,38.7070507 L43.5904301,48.8842928 C44.5335143,49.8416227 45.9174235,50.2199179 47.2163576,49.8754496 C48.5152917,49.5309813 49.5298785,48.5166216 49.8746376,47.2177647 C50.2193968,45.9189078 49.8414115,44.5349139 48.8842928,43.5916154 Z M2.59690291,21.3117895 C2.58185176,12.4615692 8.76828072,4.81066086 17.4255888,2.97282419 C26.0828969,1.13498753 34.8440798,5.61270753 38.4258442,13.7057657 C42.0076086,21.7988239 39.4306603,31.2944881 32.2489873,36.4665477 C31.5217058,33.0181001 29.2141902,30.112861 26.0198713,28.6238828 C29.2804967,26.5285319 30.7701305,22.5349187 29.6782296,18.8160579 C28.5863286,15.0971971 25.1741284,12.5428196 21.2982835,12.5428196 C17.4224386,12.5428196 14.0102383,15.0971971 12.9183374,18.8160579 C11.8264365,22.5349187 13.3160703,26.5285319 16.5766957,28.6238828 C13.3908257,30.1083954 11.0862156,33.0018785 10.3520089,36.439099 C5.48203318,32.9395034 2.59541653,27.3087746 2.59690291,21.3117895 Z M15.0599659,21.2983147 C15.0599659,17.8529698 17.8529698,15.0599659 21.2983147,15.0599659 C24.7436596,15.0599659 27.5366634,17.8529698 27.5366634,21.2983147 C27.5366634,24.7436596 24.7436596,27.5366634 21.2983147,27.5366634 C17.8546372,27.5326414 15.063988,24.7419922 15.0599659,21.2983147 Z M12.6400481,37.8495897 C13.09586,33.4008863 16.8484142,30.0213055 21.3203949,30.0319734 C25.7923756,30.042692 29.5287247,33.44018 29.9632563,37.8910123 C24.5398368,40.7530667 18.0497184,40.7375477 12.6400481,37.8495897 L12.6400481,37.8495897 Z M47.1201502,47.1201502 C46.6270719,47.5929074 45.8489611,47.5929074 45.3558828,47.1201502 L35.3778935,37.1433462 C36.0002084,36.5896941 36.5896941,36.0002084 37.1433462,35.3778935 L47.1201502,45.3571305 C47.3555542,45.5896321 47.4873342,45.9071861 47.4857321,46.2380477 C47.4860938,46.5690121 47.3545287,46.8864746 47.1201502,47.1201502 Z" id="Shape"></path>
        </g>
    </g>
</svg>