<?xml version="1.0" encoding="UTF-8"?>
<svg width="50px" height="50px" viewBox="0 0 50 50" version="1.1" xmlns="http://www.w3.org/2000/svg" xmlns:xlink="http://www.w3.org/1999/xlink">
    <!-- Generator: Sketch 61.2 (89653) - https://sketch.com -->
    <title>Artboard Copy</title>
    <desc>Created with Sketch.</desc>
    <g id="Artboard-Copy" stroke="none" stroke-width="1" fill="none" fill-rule="evenodd">
        <path d="M5.24352611,8.3634785 C7.6920674,8.3634785 9.84219272,10.086162 10.3583876,12.4604667 C11.6756557,18.4265636 14.0488573,21.9903541 16.7051714,21.9903541 L16.7051714,21.9903541 L36.7749697,21.9903541 C46.4784918,21.9903541 48.9105525,34.6780084 49.70986,38.8473341 C49.7769594,39.1979379 49.8328756,39.4907882 49.8817287,39.711301 C50.4903325,42.5097137 48.6898306,45.2777913 45.866945,45.8821598 C45.500841,45.960331 45.1282625,46 44.7574498,46 C42.3100857,46 40.1587832,44.2773165 39.6414111,41.9041785 C39.4530618,41.0483788 39.3153313,40.192579 39.1834868,39.360114 C39.0381046,38.4512278 38.9003742,37.589011 38.7026074,36.8026319 L38.7026074,36.8026319 L38.7026074,39.8629765 C38.7026074,45.7310677 35.3105537,45.7310677 31.7189674,45.7310677 L31.7189674,45.7310677 L21.3267931,45.7351513 C18.3079065,45.7351513 15.9482426,45.3577127 15.5921446,41.0536291 L15.5921446,41.0536291 L14.5267937,41.6089947 C14.3561021,41.6976665 14.1701072,41.7414191 13.9847008,41.7414191 C13.7433782,41.7414191 13.5026442,41.6673314 13.3001687,41.5214896 C12.942305,41.2636413 12.7627845,40.8261159 12.8375357,40.3932574 L12.8375357,40.3932574 L13.6503807,35.7012346 L10.2100625,32.3783747 C9.8928116,32.0709402 9.77921341,31.6129969 9.91576668,31.1953059 C9.92694992,31.1608873 9.94813922,31.1328856 9.96226542,31.1008004 C3.27762998,27.4664225 0.648391047,17.0830688 0.118069965,14.6521775 C-0.489945216,11.8537648 1.31055666,9.08568715 4.13285365,8.48131868 C4.49895766,8.40314747 4.87330196,8.3634785 5.24352611,8.3634785 Z M8.08406944,12.9504952 C7.75328093,11.4267399 6.18174121,10.4099308 4.6231505,10.7366165 C3.0569081,11.0720526 2.05630229,12.6103921 2.3941539,14.1650658 C2.94801865,16.7032967 6.01870132,28.9195903 13.8187179,29.9830688 L13.8187179,29.9830688 L15.6092138,29.7252205 L17.7346182,25.4561389 C18.1254431,24.6685931 19.4303508,24.6674264 19.8211757,25.4561389 L19.8211757,25.4561389 L21.9477573,29.7252205 L26.7000463,30.4095102 C27.1385471,30.4725139 27.5022968,30.777615 27.6400272,31.1947226 C27.7765805,31.6124135 27.6629823,32.0709402 27.3457314,32.377208 L27.3457314,32.377208 L23.9065903,35.7006512 L24.6805884,40.1704111 C24.7317958,40.2999186 24.7588711,40.4405101 24.7588711,40.5875187 C24.7588711,41.2245557 24.2379674,41.7408357 23.5946368,41.7408357 C23.5887509,41.7414191 23.579922,41.7420024 23.5716817,41.7408357 C23.3862753,41.7408357 23.2002804,41.6970832 23.0295888,41.6084113 L23.0295888,41.6084113 L18.7787798,39.3933659 L17.8694057,39.8670601 C17.8699676,43.2649622 18.5382222,43.4199438 20.9686592,43.4270126 L21.3279703,43.4273504 L31.7201446,43.4232669 C35.4824224,43.4232669 36.3759046,43.4232669 36.3759046,39.8623932 L36.3759046,39.8623932 L36.3759046,32.6957265 C36.3759046,32.2605345 36.6237017,31.8620947 37.0157037,31.6660833 C37.1816866,31.5832451 37.361207,31.5424094 37.5395503,31.5424094 C37.7838158,31.5424094 38.0269042,31.6182472 38.2317341,31.7681726 C40.6084672,33.5089404 41.0528539,36.3003527 41.483703,38.999593 C41.609073,39.7883055 41.737386,40.5997694 41.9169064,41.4129833 C42.2488721,42.9349885 43.8227662,43.9622982 45.3766482,43.626862 C46.9434792,43.2908425 47.944085,41.7530864 47.6062334,40.1989961 C47.5550259,39.9644824 47.4949896,39.6529643 47.4231814,39.2790259 C46.1900819,32.8479853 43.7450721,24.2981549 36.7755583,24.2981549 L36.7755583,24.2981549 L16.7051714,24.2981549 C12.8181121,24.2981549 9.67503269,20.1620811 8.08406944,12.9504952 Z M18.7787798,28.5736535 L17.4261962,31.2903948 C17.2566818,31.6310813 16.9294249,31.8667616 16.5497832,31.9215982 L16.5497832,31.9215982 L13.5250107,32.3567901 L15.7139831,34.4714964 C15.9876782,34.7369285 16.1130482,35.1184507 16.0494803,35.4929725 L16.0494803,35.4929725 L15.5321083,38.478646 L18.2372755,37.0686474 C18.4073785,36.9799756 18.5927849,36.936223 18.7793684,36.936223 C18.965952,36.936223 19.1507698,36.9799756 19.3214613,37.0686474 L19.3214613,37.0686474 L22.0266286,38.478646 L21.5104337,35.4929725 C21.4456886,35.1184507 21.5710587,34.7369285 21.8447538,34.4720798 L21.8447538,34.4720798 L24.0337261,32.3567901 L21.0089536,31.9215982 C20.629312,31.867345 20.302055,31.6310813 20.1325406,31.2909782 L20.1325406,31.2909782 L18.7787798,28.5736535 Z M27.0314234,3 C31.8631724,3 35.7937874,6.8957265 35.7937874,11.6845883 C35.7937874,16.47345 31.8631724,20.3691765 27.0314234,20.3691765 C22.1996745,20.3691765 18.2690595,16.47345 18.2690595,11.6845883 C18.2690595,6.8957265 22.1996745,3 27.0314234,3 Z M27.0314234,5.30721747 C23.4839815,5.30721747 20.5969395,8.16805047 20.5969395,11.6845883 C20.5969395,15.201126 23.4839815,18.061959 27.0314234,18.061959 C30.5788654,18.061959 33.4659074,15.201126 33.4659074,11.6845883 C33.4659074,8.16805047 30.5788654,5.30721747 27.0314234,5.30721747 Z" id="Combined-Shape" fill="#685800" fill-rule="nonzero"></path>
    </g>
</svg>