<?xml version="1.0" encoding="UTF-8"?>
<svg width="38px" height="50px" viewBox="0 0 38 50" version="1.1" xmlns="http://www.w3.org/2000/svg" xmlns:xlink="http://www.w3.org/1999/xlink">
    <!-- Generator: Sketch 61.2 (89653) - https://sketch.com -->
    <title>Combined Shape</title>
    <desc>Created with Sketch.</desc>
    <g id="Page-1" stroke="none" stroke-width="1" fill="none" fill-rule="evenodd">
        <g id="Artboard-Copy-2" transform="translate(-6.000000, 0.000000)" fill="#685800" fill-rule="nonzero" stroke="#736500" stroke-width="0.2">
            <path d="M16.8132977,36 L16.8132977,47.34444 L24.4157152,41.4212522 C24.7537679,41.1566725 25.2462321,41.1566725 25.5842848,41.4212522 L25.5842848,41.4212522 L33.1867023,47.34444 L33.1867023,36 L35,36 L35,49.1515241 C34.9993293,49.4807654 34.7952298,49.7800389 34.4761111,49.9197087 C34.1569923,50.0593785 33.7802458,50.0143259 33.5090663,49.8040661 L33.5090663,49.8040661 L24.9932842,43.1906846 L16.4909337,49.8040661 C16.2197542,50.0143259 15.8430077,50.0593785 15.5238889,49.9197087 C15.2047702,49.7800389 15.0006707,49.4807654 15,49.1515241 L15,49.1515241 L15,36 L16.8132977,36 Z M21.9243732,0.00530366238 C22.1082255,-0.014763183 22.2937838,0.0224108454 22.4558019,0.111768018 L22.4558019,0.111768018 L24.6213741,1.25663472 L27.6372323,0.0737352969 C27.9840552,-0.0653656006 28.3805808,0.0246849723 28.6336606,0.300023172 L28.6336606,0.300023172 L30.2810896,2.13711266 L33.5228048,2.06895366 C33.8989818,2.05597583 34.2434846,2.27893819 34.3863763,2.62785745 L34.3863763,2.62785745 L35.3163769,4.93088185 L38.3853751,5.99327616 C38.7365275,6.11204765 38.9791082,6.43437201 38.9965199,6.80532247 L38.9965199,6.80532247 L39.1028056,9.29469358 L41.6403779,11.3581391 C41.9229172,11.5944272 42.0334132,11.9792756 41.9193805,12.3298819 L41.9193805,12.3298819 L41.1753803,14.7127887 L42.8759522,17.5350483 C43.063003,17.8540102 43.0366558,18.2550895 42.8094939,18.5467324 L42.8094939,18.5467324 L41.3082079,20.5170045 L41.9459224,23.7651898 C42.016402,24.1283259 41.8583905,24.4977589 41.5473491,24.6970596 L41.5473491,24.6970596 L39.4747771,26.028273 L38.983203,29.2898174 C38.9281271,29.6571613 38.6538812,29.9530806 38.2923457,30.0352724 L38.2923457,30.0352724 L35.9009165,30.5675941 L34.3464877,33.4563088 C34.1682757,33.7885018 33.8025748,33.9744838 33.4297726,33.9225164 L33.4297726,33.9225164 L31.0117723,33.6028507 L28.5672002,35.7727605 C28.2849988,36.0236407 27.8765873,36.0715321 27.5442001,35.8927204 L27.5442001,35.8927204 L25.3786279,34.7479218 L22.3627698,35.9326616 C22.0133166,36.0686418 21.6163406,35.9733295 21.3663414,35.6934235 L21.3663414,35.6934235 L19.7189117,33.869625 L16.4771973,33.937784 C16.10102,33.9507621 15.7565168,33.7277997 15.6136251,33.3788802 L15.6136251,33.3788802 L14.6836252,31.0758558 L11.6146242,30.0108714 C11.2634719,29.8920999 11.0208911,29.5697756 11.0034795,29.1988251 L11.0034795,29.1988251 L10.8971937,26.709454 L8.3596221,24.6460085 C8.07708278,24.4097204 7.96658676,24.024872 8.08061948,23.6742657 L8.08061948,23.6742657 L8.82461968,21.2913589 L7.12404779,18.4690993 C6.93699696,18.1501374 6.96334419,17.7490581 7.19050614,17.4574152 L7.19050614,17.4574152 L8.69179209,15.4871431 L8.05407763,12.2389578 C7.98359804,11.8758217 8.1416095,11.5063887 8.45265087,11.307088 L8.45265087,11.307088 L10.5119373,9.97587461 L11.0167963,6.71439837 C11.0718464,6.34702827 11.3460976,6.05107626 11.7076536,5.96887524 L11.7076536,5.96887524 L14.0990828,5.43655346 L15.6535117,2.53441146 C15.8356792,2.20748503 16.2005175,2.02736682 16.570226,2.08183571 L16.570226,2.08183571 L18.988227,2.40150142 L21.4327991,0.231591538 C21.5696196,0.107434032 21.7412325,0.0284349178 21.9243732,0.00530366238 Z M27.7169462,1.97550767 L27.7169476,1.9764619 L24.8870898,3.09467843 C24.6448396,3.18938656 24.3735473,3.17447445 24.1430896,3.05378303 L24.1430896,3.05378303 L22.1635172,2.00208968 L19.8783744,4.02552587 C19.6836596,4.20226839 19.4215884,4.28492955 19.1609453,4.25181375 L19.1609453,4.25181375 L16.9422302,3.94577985 L15.4808016,6.64821598 C15.3566438,6.87898085 15.1384087,7.04418331 14.8829417,7.10079173 L14.8829417,7.10079173 L12.7040833,7.59358129 L12.2390857,10.6554198 C12.1952457,10.9089797 12.0453824,11.1316934 11.8272276,11.2674876 L11.8272276,11.2674876 L9.92736981,12.4922367 L10.5252297,15.527425 C10.5766019,15.7788645 10.518615,16.0403253 10.3657976,16.246298 L10.3657976,16.246298 L8.98408299,18.0700965 L10.5650836,20.7192323 C10.6989038,20.9388181 10.732743,21.205223 10.6580845,21.4513962 L10.6580845,21.4513962 L9.98051268,23.6213061 L12.3586564,25.5649281 C12.5548785,25.7310435 12.6709058,25.97326 12.6775136,26.2305689 L12.6775136,26.2305689 L12.7705138,28.5069431 L15.6535171,29.5054725 C15.8992724,29.5876347 16.0977708,29.7719307 16.1982307,30.0112122 L16.1982307,30.0112122 L17.0485166,32.1278899 L20.0909465,32.0481439 C20.3502566,32.0475819 20.5972072,32.1591207 20.7685156,32.3541778 L20.7685156,32.3541778 L22.2830878,34.0315708 L25.1129455,32.9132861 C25.3550897,32.8183453 25.6263807,32.8329838 25.8569491,32.9534317 L25.8569491,32.9534317 L27.8365209,34.0051251 L30.1216644,31.9816889 C30.3163792,31.8049464 30.5784504,31.7222852 30.8390935,31.755401 L30.8390935,31.755401 L33.0578086,32.0614349 L34.5192372,29.3590669 C34.643395,29.1283021 34.8616301,28.9630996 35.117097,28.9064912 L35.117097,28.9064912 L37.2959548,28.4137016 L37.7609524,25.3518631 C37.8047924,25.0983032 37.9546557,24.8755895 38.1728105,24.7397953 L38.1728105,24.7397953 L40.0593821,23.5150462 L39.4748139,20.4798579 C39.4194237,20.2241639 39.4775984,19.9569703 39.6342391,19.7476258 L39.6342391,19.7476258 L41.0159537,17.9371864 L39.4216676,15.2880506 C39.292309,15.0664877 39.2633149,14.8001863 39.3419516,14.5558867 L39.3419516,14.5558867 L40.0195207,12.3859768 L37.6413777,10.4423548 C37.4401237,10.2786684 37.3190775,10.0359821 37.3092356,9.77644138 L37.3092356,9.77644138 L37.2295196,7.50006714 L34.3465189,6.50160597 C34.1007637,6.41944372 33.9022652,6.23514771 33.8018054,5.9958662 L33.8018054,5.9958662 L32.9515194,3.8791885 L29.9090895,3.95893453 C29.6451561,3.96337968 29.3925825,3.85149535 29.2182322,3.65290063 L29.2182322,3.65290063 L27.7169462,1.97550767 Z M24.9931858,6 C31.6068065,6 37,11.1575989 37,17.4999665 C37,23.8424011 31.6068065,29 24.9931858,29 C18.379565,29 13,23.8424011 13,17.4999665 C13,11.1575989 18.379565,6 24.9931858,6 Z M24.9931858,7.76620097 C19.376022,7.76620097 14.8534923,12.1166942 14.8534923,17.4999665 C14.8534923,22.8833058 19.376022,27.233799 24.9931858,27.233799 C30.6103495,27.233799 35.1465077,22.8833058 35.1465077,17.4999665 C35.1465077,12.1166942 30.6103495,7.76620097 24.9931858,7.76620097 Z M31.4642177,14.0042909 C31.8792444,13.9661524 32.2710601,14.1853166 32.4212486,14.5396111 C33.8091575,17.581696 32.558268,21.1049319 29.4817953,22.8417275 C29.2005141,23.0256025 28.8300572,23.0512578 28.5214622,22.9082337 C28.2128672,22.7652097 28.0176912,22.4774012 28.0155089,22.1621498 C28.0133266,21.8468984 28.2045024,21.5568732 28.5110927,21.4103193 C30.8278624,20.1024172 31.7567582,17.4762252 30.7122644,15.1868388 C30.5911517,14.9398007 30.6075962,14.6548574 30.7564775,14.4207341 C30.9053588,14.1866108 31.1685941,14.0317435 31.4642177,14.0043546 Z" id="Combined-Shape"></path>
        </g>
    </g>
</svg>